<mxfile host="app.diagrams.net" agent="Mozilla/5.0 (X11; Linux x86_64; rv:131.0) Gecko/20100101 Firefox/131.0" version="24.7.17">
  <diagram name="System Arcitecture Overview" id="5uaV4bZcvzpoXamUr8U_">
    <mxGraphModel dx="954" dy="612" grid="0" gridSize="10" guides="1" tooltips="1" connect="1" arrows="1" fold="1" page="1" pageScale="1" pageWidth="850" pageHeight="1100" math="0" shadow="0">
      <root>
        <mxCell id="0" />
        <mxCell id="1" parent="0" />
        <mxCell id="j5AVobpqxYiASRJ7vuNw-55" value="" style="rounded=0;whiteSpace=wrap;html=1;fillColor=#f8cecc;strokeColor=#b85450;" vertex="1" parent="1">
          <mxGeometry x="514" y="230" width="132" height="135" as="geometry" />
        </mxCell>
        <mxCell id="j5AVobpqxYiASRJ7vuNw-34" value="" style="rounded=0;whiteSpace=wrap;html=1;" vertex="1" parent="1">
          <mxGeometry x="526" y="306" width="16" height="42" as="geometry" />
        </mxCell>
        <mxCell id="j5AVobpqxYiASRJ7vuNw-33" value="" style="rounded=0;whiteSpace=wrap;html=1;" vertex="1" parent="1">
          <mxGeometry x="523" y="308" width="16" height="42" as="geometry" />
        </mxCell>
        <mxCell id="j5AVobpqxYiASRJ7vuNw-24" value="" style="rounded=0;whiteSpace=wrap;html=1;fillColor=#ffe6cc;strokeColor=#d79b00;" vertex="1" parent="1">
          <mxGeometry x="150" y="320" width="190" height="170" as="geometry" />
        </mxCell>
        <mxCell id="j5AVobpqxYiASRJ7vuNw-23" value="" style="rounded=0;whiteSpace=wrap;html=1;fillColor=#dae8fc;strokeColor=#6c8ebf;" vertex="1" parent="1">
          <mxGeometry x="150" y="230" width="190" height="80" as="geometry" />
        </mxCell>
        <mxCell id="j5AVobpqxYiASRJ7vuNw-8" style="edgeStyle=orthogonalEdgeStyle;rounded=0;orthogonalLoop=1;jettySize=auto;html=1;exitX=0;exitY=0.5;exitDx=0;exitDy=0;entryX=0.5;entryY=1;entryDx=0;entryDy=0;" edge="1" parent="1" source="j5AVobpqxYiASRJ7vuNw-1" target="j5AVobpqxYiASRJ7vuNw-6">
          <mxGeometry relative="1" as="geometry" />
        </mxCell>
        <mxCell id="j5AVobpqxYiASRJ7vuNw-1" value="Display System" style="rounded=0;whiteSpace=wrap;html=1;" vertex="1" parent="1">
          <mxGeometry x="200" y="240" width="120" height="60" as="geometry" />
        </mxCell>
        <mxCell id="j5AVobpqxYiASRJ7vuNw-5" style="edgeStyle=orthogonalEdgeStyle;rounded=0;orthogonalLoop=1;jettySize=auto;html=1;exitX=0;exitY=0.5;exitDx=0;exitDy=0;entryX=1;entryY=0.5;entryDx=0;entryDy=0;" edge="1" parent="1" source="j5AVobpqxYiASRJ7vuNw-2" target="j5AVobpqxYiASRJ7vuNw-1">
          <mxGeometry relative="1" as="geometry" />
        </mxCell>
        <mxCell id="j5AVobpqxYiASRJ7vuNw-2" value="Framebuffer" style="rounded=0;whiteSpace=wrap;html=1;" vertex="1" parent="1">
          <mxGeometry x="360" y="240" width="120" height="60" as="geometry" />
        </mxCell>
        <mxCell id="j5AVobpqxYiASRJ7vuNw-4" style="edgeStyle=orthogonalEdgeStyle;rounded=0;orthogonalLoop=1;jettySize=auto;html=1;exitX=0;exitY=0.5;exitDx=0;exitDy=0;entryX=1;entryY=0.5;entryDx=0;entryDy=0;" edge="1" parent="1" source="j5AVobpqxYiASRJ7vuNw-3" target="j5AVobpqxYiASRJ7vuNw-2">
          <mxGeometry relative="1" as="geometry" />
        </mxCell>
        <mxCell id="j5AVobpqxYiASRJ7vuNw-3" value="&lt;div&gt;Tiled Rasterizer&lt;/div&gt;" style="rounded=0;whiteSpace=wrap;html=1;" vertex="1" parent="1">
          <mxGeometry x="520" y="240" width="120" height="60" as="geometry" />
        </mxCell>
        <mxCell id="j5AVobpqxYiASRJ7vuNw-6" value="&lt;font style=&quot;font-size: 10px;&quot;&gt;VGA&lt;/font&gt;" style="rounded=0;whiteSpace=wrap;html=1;rotation=-90;" vertex="1" parent="1">
          <mxGeometry x="140" y="260" width="60" height="20" as="geometry" />
        </mxCell>
        <mxCell id="j5AVobpqxYiASRJ7vuNw-20" style="edgeStyle=orthogonalEdgeStyle;rounded=0;orthogonalLoop=1;jettySize=auto;html=1;exitX=1;exitY=0.25;exitDx=0;exitDy=0;entryX=0;entryY=0.25;entryDx=0;entryDy=0;" edge="1" parent="1" source="j5AVobpqxYiASRJ7vuNw-9" target="j5AVobpqxYiASRJ7vuNw-18">
          <mxGeometry relative="1" as="geometry" />
        </mxCell>
        <mxCell id="j5AVobpqxYiASRJ7vuNw-9" value="Model Data R/W" style="rounded=0;whiteSpace=wrap;html=1;" vertex="1" parent="1">
          <mxGeometry x="200" y="330" width="120" height="60" as="geometry" />
        </mxCell>
        <mxCell id="j5AVobpqxYiASRJ7vuNw-11" style="edgeStyle=orthogonalEdgeStyle;rounded=0;orthogonalLoop=1;jettySize=auto;html=1;exitX=0.5;exitY=1;exitDx=0;exitDy=0;entryX=0;entryY=0.5;entryDx=0;entryDy=0;" edge="1" parent="1" source="j5AVobpqxYiASRJ7vuNw-10" target="j5AVobpqxYiASRJ7vuNw-9">
          <mxGeometry relative="1" as="geometry" />
        </mxCell>
        <mxCell id="j5AVobpqxYiASRJ7vuNw-10" value="&lt;font style=&quot;font-size: 10px;&quot;&gt;SRAM&lt;/font&gt;" style="rounded=0;whiteSpace=wrap;html=1;rotation=-90;" vertex="1" parent="1">
          <mxGeometry x="140" y="350" width="60" height="20" as="geometry" />
        </mxCell>
        <mxCell id="j5AVobpqxYiASRJ7vuNw-19" style="edgeStyle=orthogonalEdgeStyle;rounded=0;orthogonalLoop=1;jettySize=auto;html=1;exitX=1;exitY=0.5;exitDx=0;exitDy=0;entryX=0;entryY=0.75;entryDx=0;entryDy=0;" edge="1" parent="1" source="j5AVobpqxYiASRJ7vuNw-12" target="j5AVobpqxYiASRJ7vuNw-18">
          <mxGeometry relative="1" as="geometry">
            <Array as="points">
              <mxPoint x="330" y="450" />
              <mxPoint x="330" y="375" />
            </Array>
          </mxGeometry>
        </mxCell>
        <mxCell id="j5AVobpqxYiASRJ7vuNw-12" value="&lt;div&gt;Model Transform&amp;nbsp;&lt;/div&gt;&lt;div&gt;+&lt;/div&gt;&lt;div&gt;View Transform&lt;br&gt;&lt;/div&gt;" style="rounded=0;whiteSpace=wrap;html=1;" vertex="1" parent="1">
          <mxGeometry x="200" y="420" width="120" height="60" as="geometry" />
        </mxCell>
        <mxCell id="j5AVobpqxYiASRJ7vuNw-13" value="&amp;nbsp;" style="text;whiteSpace=wrap;html=1;" vertex="1" parent="1">
          <mxGeometry x="210" y="570" width="40" height="40" as="geometry" />
        </mxCell>
        <mxCell id="j5AVobpqxYiASRJ7vuNw-15" style="edgeStyle=orthogonalEdgeStyle;rounded=0;orthogonalLoop=1;jettySize=auto;html=1;exitX=0.5;exitY=1;exitDx=0;exitDy=0;entryX=0;entryY=0.5;entryDx=0;entryDy=0;" edge="1" parent="1" source="j5AVobpqxYiASRJ7vuNw-14" target="j5AVobpqxYiASRJ7vuNw-12">
          <mxGeometry relative="1" as="geometry" />
        </mxCell>
        <mxCell id="j5AVobpqxYiASRJ7vuNw-14" value="&lt;font style=&quot;font-size: 10px;&quot;&gt;MCU-SPI&lt;/font&gt;" style="rounded=0;whiteSpace=wrap;html=1;rotation=-90;" vertex="1" parent="1">
          <mxGeometry x="140" y="440" width="60" height="20" as="geometry" />
        </mxCell>
        <mxCell id="j5AVobpqxYiASRJ7vuNw-16" value="&amp;nbsp;" style="text;whiteSpace=wrap;html=1;" vertex="1" parent="1">
          <mxGeometry x="410" y="260" width="40" height="40" as="geometry" />
        </mxCell>
        <mxCell id="j5AVobpqxYiASRJ7vuNw-22" style="edgeStyle=orthogonalEdgeStyle;rounded=0;orthogonalLoop=1;jettySize=auto;html=1;exitX=0.5;exitY=1;exitDx=0;exitDy=0;entryX=0.5;entryY=0;entryDx=0;entryDy=0;" edge="1" parent="1" source="j5AVobpqxYiASRJ7vuNw-18" target="j5AVobpqxYiASRJ7vuNw-21">
          <mxGeometry relative="1" as="geometry" />
        </mxCell>
        <mxCell id="j5AVobpqxYiASRJ7vuNw-18" value="Vertex Shader Unit" style="rounded=0;whiteSpace=wrap;html=1;" vertex="1" parent="1">
          <mxGeometry x="360" y="330" width="120" height="60" as="geometry" />
        </mxCell>
        <mxCell id="j5AVobpqxYiASRJ7vuNw-28" style="edgeStyle=orthogonalEdgeStyle;rounded=0;orthogonalLoop=1;jettySize=auto;html=1;exitX=1;exitY=0.5;exitDx=0;exitDy=0;entryX=0;entryY=0.5;entryDx=0;entryDy=0;" edge="1" parent="1" source="j5AVobpqxYiASRJ7vuNw-21" target="j5AVobpqxYiASRJ7vuNw-27">
          <mxGeometry relative="1" as="geometry" />
        </mxCell>
        <mxCell id="j5AVobpqxYiASRJ7vuNw-21" value="Vertex Post-Processor" style="rounded=0;whiteSpace=wrap;html=1;" vertex="1" parent="1">
          <mxGeometry x="360" y="420" width="120" height="60" as="geometry" />
        </mxCell>
        <mxCell id="j5AVobpqxYiASRJ7vuNw-31" style="edgeStyle=orthogonalEdgeStyle;rounded=0;orthogonalLoop=1;jettySize=auto;html=1;exitX=0.5;exitY=0;exitDx=0;exitDy=0;entryX=0.5;entryY=1;entryDx=0;entryDy=0;" edge="1" parent="1" source="j5AVobpqxYiASRJ7vuNw-27" target="j5AVobpqxYiASRJ7vuNw-30">
          <mxGeometry relative="1" as="geometry" />
        </mxCell>
        <mxCell id="j5AVobpqxYiASRJ7vuNw-27" value="Primitive Assembler" style="rounded=0;whiteSpace=wrap;html=1;" vertex="1" parent="1">
          <mxGeometry x="520" y="420" width="120" height="60" as="geometry" />
        </mxCell>
        <mxCell id="j5AVobpqxYiASRJ7vuNw-30" value="Binner" style="rounded=0;whiteSpace=wrap;html=1;" vertex="1" parent="1">
          <mxGeometry x="520" y="374" width="120" height="31" as="geometry" />
        </mxCell>
        <mxCell id="j5AVobpqxYiASRJ7vuNw-32" value="&lt;font style=&quot;font-size: 10px;&quot;&gt;FIFO&lt;/font&gt;" style="rounded=0;whiteSpace=wrap;html=1;rotation=-90;" vertex="1" parent="1">
          <mxGeometry x="507" y="323.88" width="42" height="15.25" as="geometry" />
        </mxCell>
        <mxCell id="j5AVobpqxYiASRJ7vuNw-52" style="edgeStyle=orthogonalEdgeStyle;rounded=0;orthogonalLoop=1;jettySize=auto;html=1;exitX=0.5;exitY=0;exitDx=0;exitDy=0;endArrow=none;endFill=0;" edge="1" parent="1" source="j5AVobpqxYiASRJ7vuNw-35">
          <mxGeometry relative="1" as="geometry">
            <mxPoint x="560.9952606635071" y="300.6540284360189" as="targetPoint" />
          </mxGeometry>
        </mxCell>
        <mxCell id="j5AVobpqxYiASRJ7vuNw-35" value="" style="rounded=0;whiteSpace=wrap;html=1;" vertex="1" parent="1">
          <mxGeometry x="553" y="306" width="16" height="42" as="geometry" />
        </mxCell>
        <mxCell id="j5AVobpqxYiASRJ7vuNw-36" value="" style="rounded=0;whiteSpace=wrap;html=1;" vertex="1" parent="1">
          <mxGeometry x="550" y="308" width="16" height="42" as="geometry" />
        </mxCell>
        <mxCell id="j5AVobpqxYiASRJ7vuNw-37" value="&lt;font style=&quot;font-size: 10px;&quot;&gt;FIFO&lt;/font&gt;" style="rounded=0;whiteSpace=wrap;html=1;rotation=-90;" vertex="1" parent="1">
          <mxGeometry x="534" y="323.88" width="42" height="15.25" as="geometry" />
        </mxCell>
        <mxCell id="j5AVobpqxYiASRJ7vuNw-38" value="" style="rounded=0;whiteSpace=wrap;html=1;" vertex="1" parent="1">
          <mxGeometry x="624" y="306" width="16" height="42" as="geometry" />
        </mxCell>
        <mxCell id="j5AVobpqxYiASRJ7vuNw-39" value="" style="rounded=0;whiteSpace=wrap;html=1;" vertex="1" parent="1">
          <mxGeometry x="621" y="308" width="16" height="42" as="geometry" />
        </mxCell>
        <mxCell id="j5AVobpqxYiASRJ7vuNw-40" value="&lt;font style=&quot;font-size: 10px;&quot;&gt;FIFO&lt;/font&gt;" style="rounded=0;whiteSpace=wrap;html=1;rotation=-90;" vertex="1" parent="1">
          <mxGeometry x="605" y="323.88" width="42" height="15.25" as="geometry" />
        </mxCell>
        <mxCell id="j5AVobpqxYiASRJ7vuNw-41" value="" style="rounded=0;whiteSpace=wrap;html=1;" vertex="1" parent="1">
          <mxGeometry x="598" y="307" width="16" height="42" as="geometry" />
        </mxCell>
        <mxCell id="j5AVobpqxYiASRJ7vuNw-42" value="" style="rounded=0;whiteSpace=wrap;html=1;" vertex="1" parent="1">
          <mxGeometry x="595" y="309" width="16" height="42" as="geometry" />
        </mxCell>
        <mxCell id="j5AVobpqxYiASRJ7vuNw-43" value="&lt;font style=&quot;font-size: 10px;&quot;&gt;FIFO&lt;/font&gt;" style="rounded=0;whiteSpace=wrap;html=1;rotation=-90;" vertex="1" parent="1">
          <mxGeometry x="579" y="324.88" width="42" height="15.25" as="geometry" />
        </mxCell>
        <mxCell id="j5AVobpqxYiASRJ7vuNw-44" value="" style="endArrow=none;dashed=1;html=1;dashPattern=1 3;strokeWidth=2;rounded=0;entryX=0.629;entryY=-0.019;entryDx=0;entryDy=0;entryPerimeter=0;" edge="1" parent="1" target="j5AVobpqxYiASRJ7vuNw-43">
          <mxGeometry width="50" height="50" relative="1" as="geometry">
            <mxPoint x="571" y="327" as="sourcePoint" />
            <mxPoint x="605" y="297" as="targetPoint" />
          </mxGeometry>
        </mxCell>
        <mxCell id="j5AVobpqxYiASRJ7vuNw-45" value="" style="endArrow=classic;html=1;rounded=0;entryX=-0.019;entryY=0.501;entryDx=0;entryDy=0;entryPerimeter=0;exitX=0.067;exitY=-0.006;exitDx=0;exitDy=0;exitPerimeter=0;" edge="1" parent="1" source="j5AVobpqxYiASRJ7vuNw-30" target="j5AVobpqxYiASRJ7vuNw-32">
          <mxGeometry width="50" height="50" relative="1" as="geometry">
            <mxPoint x="528" y="370" as="sourcePoint" />
            <mxPoint x="584" y="326" as="targetPoint" />
          </mxGeometry>
        </mxCell>
        <mxCell id="j5AVobpqxYiASRJ7vuNw-46" value="" style="endArrow=classic;html=1;rounded=0;entryX=-0.019;entryY=0.501;entryDx=0;entryDy=0;entryPerimeter=0;exitX=0.291;exitY=0.013;exitDx=0;exitDy=0;exitPerimeter=0;" edge="1" parent="1" source="j5AVobpqxYiASRJ7vuNw-30">
          <mxGeometry width="50" height="50" relative="1" as="geometry">
            <mxPoint x="555" y="373" as="sourcePoint" />
            <mxPoint x="554.93" y="353" as="targetPoint" />
          </mxGeometry>
        </mxCell>
        <mxCell id="j5AVobpqxYiASRJ7vuNw-47" value="" style="endArrow=classic;html=1;rounded=0;entryX=-0.019;entryY=0.501;entryDx=0;entryDy=0;entryPerimeter=0;exitX=0.666;exitY=-0.002;exitDx=0;exitDy=0;exitPerimeter=0;" edge="1" parent="1" source="j5AVobpqxYiASRJ7vuNw-30">
          <mxGeometry width="50" height="50" relative="1" as="geometry">
            <mxPoint x="599.93" y="370" as="sourcePoint" />
            <mxPoint x="599.93" y="353" as="targetPoint" />
          </mxGeometry>
        </mxCell>
        <mxCell id="j5AVobpqxYiASRJ7vuNw-48" value="" style="endArrow=classic;html=1;rounded=0;entryX=-0.019;entryY=0.501;entryDx=0;entryDy=0;entryPerimeter=0;exitX=0.883;exitY=0.007;exitDx=0;exitDy=0;exitPerimeter=0;" edge="1" parent="1" source="j5AVobpqxYiASRJ7vuNw-30">
          <mxGeometry width="50" height="50" relative="1" as="geometry">
            <mxPoint x="626" y="373" as="sourcePoint" />
            <mxPoint x="625.9300000000001" y="353" as="targetPoint" />
          </mxGeometry>
        </mxCell>
        <mxCell id="j5AVobpqxYiASRJ7vuNw-51" style="edgeStyle=orthogonalEdgeStyle;rounded=0;orthogonalLoop=1;jettySize=auto;html=1;exitX=0.5;exitY=0;exitDx=0;exitDy=0;entryX=0.117;entryY=1.003;entryDx=0;entryDy=0;entryPerimeter=0;endArrow=none;endFill=0;" edge="1" parent="1" source="j5AVobpqxYiASRJ7vuNw-34" target="j5AVobpqxYiASRJ7vuNw-3">
          <mxGeometry relative="1" as="geometry" />
        </mxCell>
        <mxCell id="j5AVobpqxYiASRJ7vuNw-53" style="edgeStyle=orthogonalEdgeStyle;rounded=0;orthogonalLoop=1;jettySize=auto;html=1;exitX=0.5;exitY=0;exitDx=0;exitDy=0;entryX=0.716;entryY=0.998;entryDx=0;entryDy=0;entryPerimeter=0;endArrow=none;endFill=0;" edge="1" parent="1" source="j5AVobpqxYiASRJ7vuNw-41" target="j5AVobpqxYiASRJ7vuNw-3">
          <mxGeometry relative="1" as="geometry" />
        </mxCell>
        <mxCell id="j5AVobpqxYiASRJ7vuNw-54" style="edgeStyle=orthogonalEdgeStyle;rounded=0;orthogonalLoop=1;jettySize=auto;html=1;exitX=0.5;exitY=0;exitDx=0;exitDy=0;entryX=0.933;entryY=1.005;entryDx=0;entryDy=0;entryPerimeter=0;endArrow=none;endFill=0;" edge="1" parent="1" source="j5AVobpqxYiASRJ7vuNw-38" target="j5AVobpqxYiASRJ7vuNw-3">
          <mxGeometry relative="1" as="geometry" />
        </mxCell>
      </root>
    </mxGraphModel>
  </diagram>
</mxfile>
